#Comment line ignore any data following # character 
#Hierarchical Translation and Rotation (.htr) file 
[Header]	
#Header keywords are followed by a single value 
FileType HTR		#Single word string
DataType HTRS		#Translation followed by rotation and scale data
FileVersion 1		#integer
NumSegments 64		#integer
NumFrames 3		#integer
DataFrameRate 30		#integer, data frame rate in this file
EulerRotationOrder ZYX
CalibrationUnits mm
RotationUnits Degrees
GlobalAxisofGravity Y
BoneLengthAxis Y
ScaleFactor 1.00
[SegmentNames&Hierarchy]
#CHILD	PARENT
Pinger_Root GLOBAL
Pelvis Pinger_Root
L_Hip Pelvis
R_Hip Pelvis
Rear_Leg01 Pelvis
Spine1 Pelvis
L_Leg01 L_Hip
L_Leg02 L_Leg01
L_Leg03 L_Leg02
L_Foot L_Leg03
L_Toe1_01 L_Foot
L_Toe2_01 L_Foot
L_Toe3_01 L_Foot
planeAlignerLeft L_Foot
L_Toe1_02 L_Toe1_01
L_Toe1_03 L_Toe1_02
L_Toe2_02 L_Toe2_01
L_Toe2_03 L_Toe2_02
L_Toe3_02 L_Toe3_01
L_Toe3_03 L_Toe3_02
planeLockWeightLeft planeAlignerLeft
R_Leg01 R_Hip
R_Leg02 R_Leg01
R_Leg03 R_Leg02
R_Foot R_Leg03
planeAlignerRight R_Foot
R_Toe1_01 R_Foot
R_Toe2_01 R_Foot
R_Toe3_01 R_Foot
planeLockWeightRight planeAlignerRight
R_Toe1_02 R_Toe1_01
R_Toe1_03 R_Toe1_02
R_Toe2_02 R_Toe2_01
R_Toe2_03 R_Toe2_02
R_Toe3_02 R_Toe3_01
R_Toe3_03 R_Toe3_02
Rear_Leg02 Rear_Leg01
Rear_Leg03 Rear_Leg02
Rear_Leg04 Rear_Leg03
Rear_Foot Rear_Leg04
planeAlignerCenter Rear_Foot
Rear_Toe1_01 Rear_Foot
Rear_Toe2_01 Rear_Foot
Rear_Toe3_01 Rear_Foot
planeLockWeightCenter planeAlignerCenter
Rear_Toe1_02 Rear_Toe1_01
Rear_Toe1_03 Rear_Toe1_02
Rear_Toe2_02 Rear_Toe2_01
Rear_Toe2_03 Rear_Toe2_02
Rear_Toe3_02 Rear_Toe3_01
Rear_Toe3_03 Rear_Toe3_02
Back_Bone Spine1
Head Spine1
Motor_Bone Back_Bone
Ping_Mechanism Back_Bone
BN_LookIK Head
bottomMouth Head
L_Mouth01 Head
L_mouthFront Head
mouthGun Head
R_Mouth01 Head
R_mouthFront Head
TopMouth Head
weapon_bone Head
[BasePosition]
#SegmentName Tx, Ty, Tz, Rx, Ry, Rz, BoneLength
Pinger_Root 0.000000 0.000000 0.000000 -90.000000 0.000000 0.000000 10.000000 
Pelvis 0.000000 0.000000 0.000000 0.000000 0.000000 0.000000 10.000000 
L_Hip 0.000000 0.000000 0.000000 0.000000 0.000000 0.000000 10.000000 
R_Hip 0.000000 0.000000 0.000000 0.000000 0.000000 0.000000 10.000000 
Rear_Leg01 0.000000 0.000000 0.000000 0.000000 0.000000 0.000000 10.000000 
Spine1 0.000000 0.000000 0.000000 0.000000 0.000000 0.000000 10.000000 
L_Leg01 0.000000 0.000000 0.000000 0.000000 0.000000 0.000000 10.000000 
L_Leg02 0.000000 0.000000 0.000000 0.000000 0.000000 0.000000 10.000000 
L_Leg03 0.000000 0.000000 0.000000 0.000000 0.000000 0.000000 10.000000 
L_Foot 0.000000 0.000000 0.000000 0.000000 0.000000 0.000000 10.000000 
L_Toe1_01 0.000000 0.000000 0.000000 0.000000 0.000000 0.000000 10.000000 
L_Toe2_01 0.000000 0.000000 0.000000 0.000000 0.000000 0.000000 10.000000 
L_Toe3_01 0.000000 0.000000 0.000000 0.000000 0.000000 0.000000 10.000000 
planeAlignerLeft 0.000000 0.000000 0.000000 0.000000 0.000000 0.000000 10.000000 
L_Toe1_02 0.000000 0.000000 0.000000 0.000000 0.000000 0.000000 10.000000 
L_Toe1_03 0.000000 0.000000 0.000000 0.000000 0.000000 0.000000 10.000000 
L_Toe2_02 0.000000 0.000000 0.000000 0.000000 0.000000 0.000000 10.000000 
L_Toe2_03 0.000000 0.000000 0.000000 0.000000 0.000000 0.000000 10.000000 
L_Toe3_02 0.000000 0.000000 0.000000 0.000000 0.000000 0.000000 10.000000 
L_Toe3_03 0.000000 0.000000 0.000000 0.000000 0.000000 0.000000 10.000000 
planeLockWeightLeft 0.000000 0.000000 0.000000 0.000000 0.000000 0.000000 10.000000 
R_Leg01 0.000000 0.000000 0.000000 0.000000 0.000000 0.000000 10.000000 
R_Leg02 0.000000 0.000000 0.000000 0.000000 0.000000 0.000000 10.000000 
R_Leg03 0.000000 0.000000 0.000000 0.000000 0.000000 0.000000 10.000000 
R_Foot 0.000000 0.000000 0.000000 0.000000 0.000000 0.000000 10.000000 
planeAlignerRight 0.000000 0.000000 0.000000 0.000000 0.000000 0.000000 10.000000 
R_Toe1_01 0.000000 0.000000 0.000000 0.000000 0.000000 0.000000 10.000000 
R_Toe2_01 0.000000 0.000000 0.000000 0.000000 0.000000 0.000000 10.000000 
R_Toe3_01 0.000000 0.000000 0.000000 0.000000 0.000000 0.000000 10.000000 
planeLockWeightRight 0.000000 0.000000 0.000000 0.000000 0.000000 0.000000 10.000000 
R_Toe1_02 0.000000 0.000000 0.000000 0.000000 0.000000 0.000000 10.000000 
R_Toe1_03 0.000000 0.000000 0.000000 0.000000 0.000000 0.000000 10.000000 
R_Toe2_02 0.000000 0.000000 0.000000 0.000000 0.000000 0.000000 10.000000 
R_Toe2_03 0.000000 0.000000 0.000000 0.000000 0.000000 0.000000 10.000000 
R_Toe3_02 0.000000 0.000000 0.000000 0.000000 0.000000 0.000000 10.000000 
R_Toe3_03 0.000000 0.000000 0.000000 0.000000 0.000000 0.000000 10.000000 
Rear_Leg02 0.000000 0.000000 0.000000 0.000000 0.000000 0.000000 10.000000 
Rear_Leg03 0.000000 0.000000 0.000000 0.000000 0.000000 0.000000 10.000000 
Rear_Leg04 0.000000 0.000000 0.000000 0.000000 0.000000 0.000000 10.000000 
Rear_Foot 0.000000 0.000000 0.000000 0.000000 0.000000 0.000000 10.000000 
planeAlignerCenter 0.000000 0.000000 0.000000 0.000000 0.000000 0.000000 10.000000 
Rear_Toe1_01 0.000000 0.000000 0.000000 0.000000 0.000000 0.000000 10.000000 
Rear_Toe2_01 0.000000 0.000000 0.000000 0.000000 0.000000 0.000000 10.000000 
Rear_Toe3_01 0.000000 0.000000 0.000000 0.000000 0.000000 0.000000 10.000000 
planeLockWeightCenter 0.000000 0.000000 0.000000 0.000000 0.000000 0.000000 10.000000 
Rear_Toe1_02 0.000000 0.000000 0.000000 0.000000 0.000000 0.000000 10.000000 
Rear_Toe1_03 0.000000 0.000000 0.000000 0.000000 0.000000 0.000000 10.000000 
Rear_Toe2_02 0.000000 0.000000 0.000000 0.000000 0.000000 0.000000 10.000000 
Rear_Toe2_03 0.000000 0.000000 0.000000 0.000000 0.000000 0.000000 10.000000 
Rear_Toe3_02 0.000000 0.000000 0.000000 0.000000 0.000000 0.000000 10.000000 
Rear_Toe3_03 0.000000 0.000000 0.000000 0.000000 0.000000 0.000000 10.000000 
Back_Bone 0.000000 0.000000 0.000000 0.000000 0.000000 0.000000 10.000000 
Head 0.000000 0.000000 0.000000 0.000000 0.000000 0.000000 10.000000 
Motor_Bone 0.000000 0.000000 0.000000 0.000000 0.000000 0.000000 10.000000 
Ping_Mechanism 0.000000 0.000000 0.000000 0.000000 0.000000 0.000000 10.000000 
BN_LookIK 0.000000 0.000000 0.000000 0.000000 0.000000 0.000000 10.000000 
bottomMouth 0.000000 0.000000 0.000000 0.000000 0.000000 0.000000 10.000000 
L_Mouth01 0.000000 0.000000 0.000000 0.000000 0.000000 0.000000 10.000000 
L_mouthFront 0.000000 0.000000 0.000000 0.000000 0.000000 0.000000 10.000000 
mouthGun 0.000000 0.000000 0.000000 0.000000 0.000000 0.000000 10.000000 
R_Mouth01 0.000000 0.000000 0.000000 0.000000 0.000000 0.000000 10.000000 
R_mouthFront 0.000000 0.000000 0.000000 0.000000 0.000000 0.000000 10.000000 
TopMouth 0.000000 0.000000 0.000000 0.000000 0.000000 0.000000 10.000000 
weapon_bone 0.000000 0.000000 0.000000 0.000000 0.000000 0.000000 10.000000 
#Beginning of Data. Separated by tabs
#Fr	Tx	Ty	Tz	Rx	Ry	Rz	SF
[Pinger_Root]
52 0.000000 0.000000 0.000000 -0.000075 -0.000000 -0.000020 0.000000
53 0.000000 0.000000 0.000000 -0.000075 -0.000000 -0.000020 0.000000
54 0.000000 0.000000 0.000000 -0.000075 -0.000000 -0.000020 0.000000
[Pelvis]
52 -0.000027 -309.316986 2197.179199 100.502960 -78.798058 -107.657242 2218.844971
53 -0.000026 -330.421906 2293.420410 100.395935 -78.681816 -107.548431 2317.100586
54 -0.000025 -344.665009 2358.354004 100.291130 -78.565575 -107.441803 2383.406738
[L_Hip]
52 5.766392 125.831482 872.656799 -93.581612 -59.386154 1.160864 881.701050
53 5.766392 125.831482 872.656799 -93.576004 -59.329983 1.154237 881.701050
54 5.766392 125.831482 872.656799 -93.570419 -59.273796 1.147635 881.701050
[R_Hip]
52 5.765438 125.836372 -872.654907 -121.002037 46.620678 -32.533375 881.699829
53 5.765438 125.836372 -872.654907 -120.972832 46.574181 -32.492908 881.699829
54 5.765438 125.836372 -872.654907 -120.943687 46.527637 -32.452496 881.699829
[Rear_Leg01]
52 -192.298416 -925.602966 -0.001907 -171.387268 3.578346 -109.203560 945.367432
53 -192.298416 -925.602966 -0.001907 -171.960495 3.346554 -110.452278 945.367432
54 -192.298416 -925.602966 -0.001907 -172.316711 3.196340 -111.244438 945.367432
[Spine1]
52 290.604584 5.007505 0.000477 7.588501 0.015068 39.211300 290.647736
53 290.604584 5.007505 0.000477 7.588527 0.014966 39.329479 290.647736
54 290.604584 5.007505 0.000477 7.588551 0.014864 39.447662 290.647736
[L_Leg01]
52 761.932007 -0.002384 -0.069261 -96.166473 -83.410240 107.585007 761.932068
53 761.932007 -0.002384 -0.069261 -119.306839 -86.482132 130.064957 761.932068
54 761.932007 -0.002384 -0.069261 -166.421753 -87.487289 176.770004 761.932068
[L_Leg02]
52 1441.140503 -0.000954 -0.000715 8.667158 -3.446460 -146.951630 1441.140503
53 1441.140503 -0.000954 -0.000715 8.577341 -3.414762 -143.556625 1441.140503
54 1441.140503 -0.000954 -0.000715 8.508109 -3.387518 -141.125565 1441.140503
[L_Leg03]
52 1686.963989 -0.000715 -0.000954 0.043641 -0.010392 98.839722 1686.963989
53 1686.963989 -0.000715 -0.000954 0.043639 -0.010402 98.865753 1686.963989
54 1686.963989 -0.000715 -0.000954 0.043636 -0.010412 98.891785 1686.963989
[L_Foot]
52 3041.570068 -30.715107 11.297464 -35.107216 27.015135 25.393019 3041.746094
53 3041.570068 -30.715107 11.297464 -34.882370 28.001455 25.567337 3041.746094
54 3041.570068 -30.715107 11.297464 -34.772079 28.584097 25.586687 3041.746094
[L_Toe1_01]
52 -188.216690 -224.732346 -21.137953 73.296204 -5.166504 -172.310806 293.899567
53 -188.216690 -224.732346 -21.137953 73.296349 -5.167830 -172.313583 293.899567
54 -188.216690 -224.732346 -21.137953 73.296486 -5.169154 -172.316376 293.899567
[L_Toe2_01]
52 200.746536 -219.926590 148.838394 -73.055656 -16.166794 -54.200008 332.896027
53 200.746536 -219.926590 148.838394 -73.055710 -16.164612 -54.196442 332.896027
54 200.746536 -219.926590 148.838394 -73.055748 -16.162430 -54.192860 332.896027
[L_Toe3_01]
52 188.832520 -219.859131 -191.078659 -125.352386 45.995461 -59.763157 347.140900
53 188.832520 -219.859131 -191.078659 -125.348671 45.993584 -59.756485 347.140900
54 188.832520 -219.859131 -191.078659 -125.344917 45.991692 -59.749779 347.140900
[planeAlignerLeft]
52 -37.833744 -486.409546 -95.490433 -49.375099 -81.981392 -51.625393 497.135864
53 -37.790829 -486.395020 -95.482178 -49.372452 -81.980415 -51.627964 497.116821
54 -37.585480 -486.338867 -95.449654 -49.369938 -81.979630 -51.630608 497.040039
[L_Toe1_02]
52 413.761139 0.000477 0.000000 0.001396 -24.413219 0.001396 413.761139
53 413.761139 0.000477 0.000000 0.001396 -24.416010 0.001396 413.761139
54 413.761139 0.000477 0.000000 0.001396 -24.418808 0.001396 413.761139
[L_Toe1_03]
52 464.317322 0.000358 -0.000089 0.002652 37.478027 0.002652 464.317322
53 464.317322 0.000358 -0.000089 0.002656 37.558445 0.002656 464.317322
54 464.317322 0.000358 -0.000089 0.002660 37.638851 0.002660 464.317322
[L_Toe2_02]
52 342.235809 -0.000477 0.000238 0.001181 -76.946999 0.001181 342.235809
53 342.235809 -0.000477 0.000238 0.001181 -76.944611 0.001181 342.235809
54 342.235809 -0.000477 0.000238 0.001181 -76.942192 0.001181 342.235809
[L_Toe2_03]
52 420.210846 -0.000715 0.000000 -179.995041 80.192421 -179.991531 420.210846
53 420.210846 -0.000715 0.000000 -179.995041 80.197952 -179.991531 420.210846
54 420.210846 -0.000715 0.000000 -179.995026 80.203514 -179.991516 420.210846
[L_Toe3_02]
52 329.270111 0.000954 0.000000 0.001176 -82.852982 0.001176 329.270111
53 329.270111 0.000954 0.000000 0.001176 -82.850319 0.001176 329.270111
54 329.270111 0.000954 0.000000 0.001176 -82.847580 0.001176 329.270111
[L_Toe3_03]
52 439.137451 -0.001907 0.000954 179.990540 67.009460 179.997681 439.137451
53 439.137451 -0.001907 0.000954 179.990540 67.013962 179.997681 439.137451
54 439.137451 -0.001907 0.000954 179.990540 67.018494 179.997681 439.137451
[planeLockWeightLeft]
52 999.998840 0.098075 0.075999 -0.011826 -0.004376 0.005620 999.998901
53 999.998840 0.098077 0.075998 -0.011826 -0.004376 0.005620 999.998901
54 999.998840 0.098079 0.075997 -0.011826 -0.004376 0.005620 999.998901
[R_Leg01]
52 761.455627 -0.001907 -0.000358 44.366947 -63.910595 132.222244 761.455688
53 761.455627 -0.001907 -0.000358 47.876148 -61.168095 127.909035 761.455688
54 761.455627 -0.001907 -0.000358 49.872055 -59.173264 125.272736 761.455688
[R_Leg02]
52 1441.140625 0.000000 -0.000238 -17.527788 -0.253540 -128.354599 1441.140625
53 1441.140625 0.000000 -0.000238 -18.496239 0.132650 -123.040848 1441.140625
54 1441.140625 0.000000 -0.000238 -19.154299 0.436826 -119.242470 1441.140625
[R_Leg03]
52 1686.963989 0.000954 0.001431 0.053522 -0.024159 124.907280 1686.963989
53 1686.963989 0.000954 0.001431 0.049408 -0.025936 123.721504 1686.963989
54 1686.963989 0.000954 0.001431 0.047241 -0.021212 122.839134 1686.963989
[R_Foot]
52 3041.560059 -30.531288 -11.204481 29.536648 -24.363504 21.677740 3041.734131
53 3041.560059 -30.531288 -11.204481 29.047073 -25.576059 21.181345 3041.734131
54 3041.560059 -30.531288 -11.204481 28.788244 -26.447819 20.759409 3041.734131
[planeAlignerRight]
52 -222.811584 -563.718933 -76.319878 -172.216263 -81.431870 69.619392 610.940857
53 -222.603058 -563.629517 -76.323013 -172.216263 -81.431870 69.619392 610.782715
54 -222.394531 -563.540161 -76.326141 -172.216263 -81.431870 69.619392 610.624695
[R_Toe1_01]
52 -188.383347 -224.864899 21.052242 102.437843 -2.576310 -171.848633 294.101532
53 -188.383347 -224.864899 21.052242 102.438148 -2.575444 -171.854279 294.101532
54 -188.383347 -224.864899 21.052242 102.438431 -2.574579 -171.859955 294.101532
[R_Toe2_01]
52 200.637817 -220.002121 -148.787384 -125.812294 12.700955 -63.818333 332.857574
53 200.637817 -220.002121 -148.787384 -125.811798 12.698991 -63.813625 332.857574
54 200.637817 -220.002121 -148.787384 -125.811279 12.697026 -63.808910 332.857574
[R_Toe3_01]
52 188.606735 -220.092957 191.126343 -66.938385 -38.562035 -60.803322 347.192566
53 188.606735 -220.092957 191.126343 -66.940857 -38.560890 -60.796265 347.192566
54 188.606735 -220.092957 191.126343 -66.943336 -38.559753 -60.789204 347.192566
[planeLockWeightRight]
52 999.999329 0.000000 0.076007 -0.011823 -0.004379 -0.000027 999.999329
53 999.999329 0.000000 0.076007 -0.011823 -0.004379 -0.000027 999.999329
54 999.999329 0.000000 0.076006 -0.011823 -0.004379 -0.000027 999.999329
[R_Toe1_02]
52 413.762085 0.000477 -0.000119 0.001386 -25.761881 0.001386 413.762085
53 413.762085 0.000477 -0.000119 0.001386 -25.765886 0.001386 413.762085
54 413.762085 0.000477 -0.000119 0.001386 -25.769888 0.001386 413.762085
[R_Toe1_03]
52 464.317810 0.000000 0.001088 0.003155 46.324207 0.003155 464.317810
53 464.317810 0.000000 0.001088 0.003160 46.396267 0.003160 464.317810
54 464.317810 0.000000 0.001088 0.003165 46.468338 0.003165 464.317810
[R_Toe2_02]
52 342.234741 -0.000954 0.000238 -0.002342 -75.400574 -0.002342 342.234741
53 342.234741 -0.000954 0.000238 -0.002342 -75.398743 -0.002342 342.234741
54 342.234741 -0.000954 0.000238 -0.002342 -75.396927 -0.002342 342.234741
[R_Toe2_03]
52 420.210846 0.000715 -0.000268 -179.983780 85.449554 -179.987274 420.210846
53 420.210846 0.000715 -0.000268 -179.983765 85.451836 -179.987259 420.210846
54 420.210846 0.000715 -0.000268 -179.983765 85.454124 -179.987259 420.210846
[R_Toe3_02]
52 329.270355 -0.000477 -0.000954 0.001176 -82.645714 0.001176 329.270355
53 329.270355 -0.000477 -0.000954 0.001176 -82.645073 0.001176 329.270355
54 329.270355 -0.000477 -0.000954 0.001176 -82.644356 0.001176 329.270355
[R_Toe3_03]
52 439.137939 0.000238 0.001431 -179.998795 67.872467 -179.995224 439.137939
53 439.137939 0.000238 0.001431 -179.998795 67.879097 -179.995224 439.137939
54 439.137939 0.000238 0.001431 -179.998795 67.885727 -179.995224 439.137939
[Rear_Leg02]
52 1162.777710 -0.029802 0.005960 5.716742 1.270867 -151.008484 1162.777710
53 1162.777710 -0.029802 0.005960 5.809601 1.117598 -150.731110 1162.777710
54 1162.777710 -0.029802 0.005960 5.901711 0.963881 -150.453995 1162.777710
[Rear_Leg03]
52 607.192505 -0.013351 -0.073195 0.010210 -0.005648 74.255836 607.192505
53 607.192505 -0.013351 -0.073195 0.010214 -0.005642 74.189285 607.192505
54 607.192505 -0.013351 -0.073195 0.010217 -0.005636 74.122711 607.192505
[Rear_Leg04]
52 995.874512 -0.020504 -0.011921 -0.045400 -0.017527 81.199348 995.874573
53 995.874512 -0.020504 -0.011921 -0.045363 -0.017623 80.956818 995.874573
54 995.874512 -0.020504 -0.011921 -0.045326 -0.017719 80.714310 995.874573
[Rear_Foot]
52 3096.176270 -0.067472 -0.041425 -10.830873 79.779724 -147.404922 3096.176270
53 3096.176270 -0.067472 -0.041425 -12.245759 80.468483 -150.132370 3096.176270
54 3096.176270 -0.067472 -0.041425 -13.270070 80.885399 -152.033081 3096.176270
[planeAlignerCenter]
52 -9.129639 -186.473389 -666.742859 12.240772 -0.001473 179.998184 692.388428
53 -9.125724 -186.388626 -666.678345 12.240769 -0.001473 179.998184 692.303467
54 -9.121807 -186.303879 -666.613831 12.240772 -0.001473 179.998184 692.218445
[Rear_Toe1_01]
52 0.653352 83.966492 -371.173737 0.709864 30.829556 91.075966 380.553192
53 0.653352 83.966492 -371.173737 0.710419 30.829548 91.076523 380.553192
54 0.653352 83.966492 -371.173737 0.710977 30.829548 91.077080 380.553192
[Rear_Toe2_01]
52 178.200760 -294.826019 -362.060547 -8.050137 29.227339 -68.222504 499.765686
53 178.200760 -294.826019 -362.060547 -8.049910 29.228868 -68.216698 499.765686
54 178.200760 -294.826019 -362.060547 -8.049688 29.230413 -68.210915 499.765686
[Rear_Toe3_01]
52 -153.359680 -308.780914 -362.060852 3.660200 27.977383 -111.888687 499.952881
53 -153.359680 -308.780914 -362.060852 3.660429 27.973358 -111.885788 499.952881
54 -153.359680 -308.780914 -362.060852 3.660656 27.969330 -111.882889 499.952881
[planeLockWeightCenter]
52 1000.000122 0.000192 0.076252 -0.011814 -0.004373 -0.000015 1000.000122
53 1000.000122 0.000189 0.076252 -0.011814 -0.004373 -0.000015 1000.000122
54 1000.000122 0.000187 0.076252 -0.011814 -0.004373 -0.000015 1000.000122
[Rear_Toe1_02]
52 379.707825 0.194073 0.000477 -0.002651 -32.412357 -0.002651 379.707855
53 379.707825 0.194073 0.000477 -0.002651 -32.412163 -0.002651 379.707855
54 379.707825 0.194073 0.000477 -0.002651 -32.411964 -0.002651 379.707855
[Rear_Toe1_03]
52 500.129700 0.165701 0.000119 -179.982071 85.929893 -179.985565 500.129761
53 500.129700 0.165701 0.000119 -179.982315 85.867722 -179.985809 500.129761
54 500.129700 0.165701 0.000119 -179.982269 85.878876 -179.985779 500.129761
[Rear_Toe2_02]
52 340.494507 0.000238 -0.000954 0.001200 -65.725258 0.001200 340.494507
53 340.494507 0.000238 -0.000954 0.001200 -65.738319 0.001200 340.494507
54 340.494507 0.000238 -0.000954 0.001200 -65.751366 0.001200 340.494507
[Rear_Toe2_03]
52 433.103577 0.000000 0.000238 0.005191 63.866531 0.005191 433.103546
53 433.103577 0.000000 0.000238 0.005186 63.843239 0.005186 433.103546
54 433.103577 0.000000 0.000238 0.005182 63.819935 0.005182 433.103546
[Rear_Toe3_02]
52 340.494141 -0.000358 -0.000477 -0.002400 -60.982758 -0.002400 340.494171
53 340.494141 -0.000358 -0.000477 -0.002400 -60.995155 -0.002400 340.494171
54 340.494141 -0.000358 -0.000477 -0.002399 -61.007504 -0.002399 340.494171
[Rear_Toe3_03]
52 433.103577 0.001431 -0.000238 -0.000232 57.483994 -0.003874 433.103546
53 433.103577 0.001431 -0.000238 -0.000228 57.435101 -0.003871 433.103546
54 433.103577 0.001431 -0.000238 -0.000225 57.386227 -0.003869 433.103546
[Back_Bone]
52 1312.175781 -701.934692 0.000954 1.385956 -0.002335 -102.169350 1488.125488
53 1312.175781 -701.934692 0.000954 1.373740 -0.001524 -100.879486 1488.125488
54 1312.175781 -701.934692 0.000954 1.357941 -0.001229 -99.253349 1488.125488
[Head]
52 1406.159424 809.709290 0.001431 -1.957007 2.598410 4.223155 1622.625488
53 1406.159424 809.709290 0.001431 -1.956603 2.598750 4.232300 1622.625488
54 1406.159424 809.709290 0.001431 -1.956199 2.599089 4.241444 1622.625488
[Motor_Bone]
52 1158.364380 -417.834747 0.000477 -0.261409 -0.049406 -116.422379 1231.419434
53 1158.364380 -417.834747 0.000477 -0.230596 -0.042321 -114.780045 1231.419434
54 1158.364380 -417.834747 0.000477 -0.204396 -0.029358 -110.867470 1231.419434
[Ping_Mechanism]
52 1167.663574 -391.865204 -16.244831 0.000103 -0.000053 82.120995 1231.771240
53 1167.799072 -390.413452 -16.352194 0.000103 -0.000053 82.120995 1231.440063
54 1167.934570 -388.961761 -16.459557 0.000103 -0.000053 82.120995 1231.110596
[BN_LookIK]
52 193.241119 1380.371704 -0.002861 0.000000 89.965736 -31.038179 1393.832153
53 193.241119 1380.371704 -0.002861 0.000000 89.965736 -31.038179 1393.832153
54 193.241119 1380.371704 -0.002861 0.000000 89.965736 -31.038179 1393.832153
[bottomMouth]
52 -435.092926 615.759399 -0.000954 -0.000022 0.000016 73.527184 753.966492
53 -435.092926 615.759399 -0.000954 -0.000022 0.000016 73.527184 753.966492
54 -435.092926 615.759399 -0.000954 -0.000022 0.000016 73.527184 753.966492
[L_Mouth01]
52 554.440979 7.658243 838.222046 150.204178 23.759130 109.605339 1005.027161
53 554.440979 7.658243 838.222046 150.204178 23.759130 109.605339 1005.027161
54 554.440979 7.658243 838.222046 150.204178 23.759130 109.605339 1005.027161
[L_mouthFront]
52 551.629089 934.514771 339.150421 0.000081 2.804060 79.119301 1136.941284
53 551.629089 934.514771 339.150421 0.000081 2.804060 79.119301 1136.941284
54 551.629089 934.514771 339.150421 0.000081 2.804060 79.119301 1136.941284
[mouthGun]
52 55.332661 1627.420898 0.000000 0.000023 0.000009 -11.038128 1628.361328
53 55.332661 1627.420898 0.000000 0.000023 0.000009 -11.038128 1628.361328
54 55.332661 1627.420898 0.000000 0.000023 0.000009 -11.038128 1628.361328
[R_Mouth01]
52 554.442383 7.659197 -838.223938 29.795891 -23.759109 109.605331 1005.029541
53 554.442383 7.659197 -838.223938 29.795891 -23.759109 109.605331 1005.029541
54 554.442383 7.659197 -838.223938 29.795891 -23.759109 109.605331 1005.029541
[R_mouthFront]
52 551.629089 934.514282 -339.151367 0.000029 -2.803930 79.119133 1136.941162
53 551.629089 934.514282 -339.151367 0.000029 -2.803930 79.119133 1136.941162
54 551.629089 934.514282 -339.151367 0.000029 -2.803930 79.119133 1136.941162
[TopMouth]
52 461.269867 -56.106091 -0.008583 -0.000059 -0.000268 92.025169 464.669525
53 461.269867 -56.106091 -0.008583 -0.000059 -0.000268 92.025169 464.669525
54 461.269867 -56.106091 -0.008583 -0.000059 -0.000268 92.025169 464.669525
[weapon_bone]
52 -987.239868 1448.372803 0.001431 0.000000 89.965736 -31.038221 1752.833740
53 -987.239868 1448.372803 0.001431 0.000000 89.965736 -31.038221 1752.833740
54 -987.239868 1448.372803 0.001431 0.000000 89.965736 -31.038221 1752.833740
